<svg xmlns="http://www.w3.org/2000/svg" width="16" height="16"><defs><clipPath id="clip_b"><path d="M-4-3H20V19H-4ZM3 6C2.446 6 2 6.446 2 7v5c0 .554.446 1 1 1h10c.554 0 1-.446 1-1V7c0-.554-.446-1-1-1Z"/></clipPath><clipPath id="clip_a"><path d="M-3.75 3.25h23.5v15.5h-23.5ZM14 5H2l4 5h4Z"/></clipPath></defs><path fill="#e0e0e0" d="M2 2A1 1 0 0 0 1 3v10a1 1 0 0 0 1 1h12a1 1 0 0 0 1-1V6a1 1 0 0 0-1-1h-4a1 1 0 0 1-1-1V3a1 1 0 0 0-1-1Z" clip-path="url(#clip_b)"/><g transform="matrix(0.4706 0 0 0.4706 1.4125 2.7353)"><path fill="#e0e0e0" d="M18 13h-3V8h-2v5h-3l4 5Z"/><path fill="none" stroke="#e0e0e0" stroke-width="1.5" stroke-dasharray="2.625 0.75" stroke-dashoffset="4.875" clip-path="url(#clip_a)" d="M14 11a6 2 0 0 1-6 2 6 2 0 0 1-6-2 6 2 0 0 1 6-2 6 2 0 0 1 6 2Z" transform="translate(6 7)"/></g></svg>